<svg xmlns="http://www.w3.org/2000/svg" viewBox="0 0 720 560" role="img" aria-labelledby="t d"><title id="t">日本地図と重点対応地域</title><desc id="d">北海道、本州、四国、九州、沖縄を示し、重点地域を緑色で表示</desc><rect width="720" height="560" rx="28" fill="#f4f8f5"/><g fill="#d9e6de" stroke="#789387" stroke-width="3"><path d="M520 55l95 5 44 70-68 52-90-32-20-55z"/><path d="M520 170l35 25-8 35-40 8-20-30z"/><path d="M475 225l38 20-16 32-34-8z"/><path d="M438 270l42 16-18 32-40-7z"/><path d="M397 310l44 16-20 34-44-12z"/><path d="M350 346l50 15-18 34-48-11z"/><path d="M300 382l52 16-18 34-48-12z"/><path d="M245 412l52 15-20 34-48-12z"/><path d="M190 438l50 15-24 40-54-14z"/><path d="M110 430l60 10 25 55-58 34-65-42z"/><path d="M290 455l62 12-14 28-62-8z"/></g><g fill="#158a43" stroke="#fff" stroke-width="4"><circle cx="512" cy="238" r="13"/><circle cx="468" cy="294" r="13"/><circle cx="391" cy="360" r="13"/><circle cx="315" cy="410" r="13"/><circle cx="254" cy="442" r="13"/><circle cx="132" cy="465" r="13"/></g><g font-family="sans-serif" font-size="18" font-weight="700" fill="#17324d"><text x="530" y="236">いわき</text><text x="485" y="292">関東</text><text x="407" y="358">岐阜</text><text x="330" y="408">鳥取</text><text x="270" y="440">島根</text><text x="55" y="535">別府・大分</text></g></svg>